<svg xmlns="http://www.w3.org/2000/svg" width="233" height="43.997" viewBox="0 0 233 43.997">
  <g id="Group_1560" data-name="Group 1560" transform="translate(-11990 -135)">
    <g id="Group_1559" data-name="Group 1559" transform="translate(11990 135)">
      <path id="Path_422" data-name="Path 422" d="M1014.068,809.235h7.47l-11.087-13.5.13-.122,10.488-9.945h-7.657l-8.54,8.3v-8.3h-6.146v23.567h6.146V801.05l1.38-1.313Z" transform="translate(-923.416 -775.361)" fill="#1c0f0c"/>
      <path id="Path_423" data-name="Path 423" d="M1038.036,809.236h6.76l-9.88-23.567h-5.843l-9.731,23.567h6.5l1.541-4.314h9.135Zm-3.627-10.434h-4.825l1.973-5.533c.095-.276.187-.568.264-.839l.18-.609.191.606c.088.275.182.571.282.847Z" transform="translate(-914.02 -775.361)" fill="#1c0f0c"/>
      <path id="Path_424" data-name="Path 424" d="M1061.467,809.235h5.269V785.668h-6.146v13.952l-.343-.417.079-.121h-.025l-.09.08-11.919-13.494h-5.267v23.567h6.144v-14.1l.344.438-.077.118h.026l.087-.075Z" transform="translate(-903.222 -775.361)" fill="#1c0f0c"/>
      <path id="Path_425" data-name="Path 425" d="M1085.512,809.235h5.269V785.668h-6.144v13.952l-.343-.417.077-.121h-.024l-.09.08-11.919-13.494h-5.267v23.567h6.144v-14.1l.344.438-.077.118h.026l.087-.075Z" transform="translate(-892.348 -775.361)" fill="#1c0f0c"/>
      <path id="Path_426" data-name="Path 426" d="M1108.253,809.236h6.761l-9.881-23.567h-5.844l-9.731,23.567h6.5l1.543-4.314h9.135Zm-3.63-10.434H1099.8l1.972-5.533c.095-.276.188-.568.266-.839l.178-.609.191.606c.088.275.182.571.282.847Z" transform="translate(-882.014 -775.361)" fill="#1c0f0c"/>
      <path id="Path_427" data-name="Path 427" d="M947,784.523V818.96a1.029,1.029,0,0,0,1.026,1.026h38.124l-20.186-20.672,15.044-14.791Z" transform="translate(-946.997 -775.989)" fill="#dfcb95"/>
      <path id="Path_428" data-name="Path 428" d="M997.763,778.607H948.024A1.026,1.026,0,0,0,947,779.629v7.593h34.01l-15.045,14.756,20.2,20.622h11.658a1.027,1.027,0,0,0,.972-1.018V779.629a1.028,1.028,0,0,0-1.025-1.022" transform="translate(-946.997 -778.607)" fill="#00a069"/>
      <path id="Path_429" data-name="Path 429" d="M984.828,820.278,964.635,799.6l14.073-13.837H947v-1.88h36.308l-16.016,15.744,20.167,20.655Z" transform="translate(-946.998 -776.285)" fill="#fff"/>
    </g>
  </g>
</svg>
